<svg width="123" height="52" viewBox="0 0 123 52" fill="none" xmlns="http://www.w3.org/2000/svg">
<rect x="1.5" y="7.20605" width="114.294" height="43.2835" rx="14.5" fill="#66E5BF" stroke="#050542" stroke-width="3"/>
<rect x="7.20618" y="1.5" width="114.294" height="43.2835" rx="14.5" fill="#66E5BF" stroke="#050542" stroke-width="3"/>
<path d="M25.8646 34.4324H20.2887V12.6807H32.6733V17.397H25.8646V21.548H32.1429V26.2644H25.8646V34.4324Z" fill="#050542"/>
<path d="M52.7277 23.0953C52.7277 25.6246 52.2737 27.7274 51.3659 29.4036C50.4581 31.0799 49.1776 32.3396 47.5244 33.1827C45.8808 34.0159 43.9457 34.4324 41.7192 34.4324H34.9392V12.6807H42.1922C44.4474 12.6807 46.3586 13.0824 47.9258 13.8858C49.493 14.6892 50.6827 15.8646 51.4949 17.4119C52.3167 18.9592 52.7277 20.8537 52.7277 23.0953ZM46.8507 23.3036C46.8507 21.9844 46.6787 20.8934 46.3347 20.0304C46.0002 19.1576 45.4938 18.5079 44.8153 18.0814C44.1368 17.645 43.2816 17.4268 42.2495 17.4268H40.6011V29.6119H41.8625C43.5826 29.6119 44.844 29.0962 45.6467 28.0646C46.4494 27.0232 46.8507 25.4362 46.8507 23.3036Z" fill="#050542"/>
<path d="M75.2762 34.4324H67.8512L60.1968 19.108H60.0678C60.1156 19.5742 60.1586 20.1346 60.1968 20.7892C60.235 21.4439 60.2685 22.1134 60.2971 22.7978C60.3258 23.4722 60.3401 24.0822 60.3401 24.6278V34.4324H55.3232V12.6807H62.7196L70.3453 27.7968H70.4313C70.4026 27.3207 70.3739 26.7702 70.3453 26.1453C70.3166 25.5105 70.2879 24.8708 70.2593 24.2261C70.2401 23.5814 70.2306 23.011 70.2306 22.5151V12.6807H75.2762V34.4324Z" fill="#050542"/>
<path d="M96.4199 23.0953C96.4199 25.6246 95.966 27.7274 95.0582 29.4036C94.1504 31.0799 92.8699 32.3396 91.2167 33.1827C89.5731 34.0159 87.638 34.4324 85.4114 34.4324H78.6315V12.6807H85.8844C88.1397 12.6807 90.0509 13.0824 91.618 13.8858C93.1852 14.6892 94.3749 15.8646 95.1872 17.4119C96.009 18.9592 96.4199 20.8537 96.4199 23.0953ZM90.543 23.3036C90.543 21.9844 90.371 20.8934 90.027 20.0304C89.6925 19.1576 89.1861 18.5079 88.5076 18.0814C87.8291 17.645 86.9738 17.4268 85.9418 17.4268H84.2934V29.6119H85.5548C87.2748 29.6119 88.5362 29.0962 89.3389 28.0646C90.1416 27.0232 90.543 25.4362 90.543 23.3036Z" fill="#050542"/>
</svg>
